<?xml version="1.0" encoding="UTF-8"?>
<svg xmlns="http://www.w3.org/2000/svg" xmlns:xlink="http://www.w3.org/1999/xlink" width="75.2605" height="29.7461" viewBox="0 0 75.2605 29.7461">
<defs>
<clipPath id="clip-0">
<path clip-rule="nonzero" d="M 61 7 L 74.527344 7 L 74.527344 29.476562 L 61 29.476562 Z M 61 7 "/>
</clipPath>
<clipPath id="clip-1">
<path clip-rule="nonzero" d="M 61 0.0195312 L 74.527344 0.0195312 L 74.527344 11 L 61 11 Z M 61 0.0195312 "/>
</clipPath>
<clipPath id="clip-2">
<path clip-rule="nonzero" d="M 48 7 L 62 7 L 62 29.476562 L 48 29.476562 Z M 48 7 "/>
</clipPath>
<clipPath id="clip-3">
<path clip-rule="nonzero" d="M 48 0.0195312 L 62 0.0195312 L 62 11 L 48 11 Z M 48 0.0195312 "/>
</clipPath>
</defs>
<path fill-rule="nonzero" fill="rgb(0%, 62.745667%, 57.255554%)" fill-opacity="1" d="M 21.535156 25.003906 C 21.839844 25.003906 22.085938 24.757812 22.085938 24.453125 L 22.085938 18.410156 C 22.085938 18.105469 21.839844 17.859375 21.535156 17.859375 C 21.230469 17.859375 20.984375 18.105469 20.984375 18.410156 L 20.984375 24.453125 C 20.984375 24.757812 21.230469 25.003906 21.535156 25.003906 "/>
<path fill-rule="nonzero" fill="rgb(0%, 62.745667%, 57.255554%)" fill-opacity="1" d="M 27.90625 17.859375 C 27.707031 17.859375 27.523438 17.96875 27.429688 18.148438 L 26.554688 19.828125 L 26.449219 20.03125 C 26.257812 20.410156 26.085938 20.746094 25.933594 21.082031 C 25.757812 20.695312 25.574219 20.320312 25.324219 19.828125 L 24.46875 18.152344 C 24.375 17.972656 24.191406 17.859375 23.988281 17.859375 L 23.96875 17.859375 C 23.5625 17.859375 23.304688 18.296875 23.5 18.652344 L 25.328125 21.980469 L 25.328125 24.449219 C 25.328125 24.753906 25.574219 25.003906 25.882812 25.003906 C 26.191406 25.003906 26.4375 24.753906 26.4375 24.449219 L 26.4375 21.972656 L 28.371094 18.664062 C 28.578125 18.308594 28.320312 17.859375 27.90625 17.859375 "/>
<path fill-rule="nonzero" fill="rgb(0%, 62.745667%, 57.255554%)" fill-opacity="1" d="M 34.214844 24.371094 L 32.265625 18.394531 C 32.140625 18.023438 31.796875 17.777344 31.40625 17.777344 C 31.015625 17.777344 30.667969 18.027344 30.542969 18.394531 L 28.613281 24.347656 C 28.511719 24.644531 28.671875 24.988281 28.976562 25.066406 C 29.261719 25.140625 29.542969 24.980469 29.628906 24.714844 L 30.230469 22.902344 L 32.542969 22.902344 L 33.160156 24.71875 C 33.234375 24.9375 33.4375 25.085938 33.667969 25.085938 L 33.703125 25.085938 C 34.074219 25.085938 34.332031 24.71875 34.214844 24.371094 M 30.480469 21.996094 L 31.117188 19.851562 C 31.203125 19.574219 31.289062 19.277344 31.378906 18.9375 C 31.457031 19.230469 31.539062 19.535156 31.652344 19.863281 L 32.285156 21.996094 Z M 30.480469 21.996094 "/>
<path fill-rule="nonzero" fill="rgb(0%, 62.745667%, 57.255554%)" fill-opacity="1" d="M 39.894531 20.761719 L 36.742188 20.761719 L 36.742188 18.410156 C 36.742188 18.105469 36.496094 17.859375 36.191406 17.859375 C 35.886719 17.859375 35.640625 18.105469 35.640625 18.410156 L 35.640625 24.453125 C 35.640625 24.757812 35.886719 25.003906 36.191406 25.003906 C 36.496094 25.003906 36.742188 24.757812 36.742188 24.453125 L 36.742188 21.75 L 39.894531 21.75 L 39.894531 24.453125 C 39.894531 24.757812 40.140625 25.003906 40.445312 25.003906 L 40.453125 25.003906 C 40.757812 25.003906 41.003906 24.757812 41.003906 24.453125 L 41.003906 18.410156 C 41.003906 18.105469 40.757812 17.859375 40.453125 17.859375 L 40.445312 17.859375 C 40.140625 17.859375 39.894531 18.105469 39.894531 18.410156 Z M 39.894531 20.761719 "/>
<path fill-rule="nonzero" fill="rgb(0%, 62.745667%, 57.255554%)" fill-opacity="1" d="M 12.277344 24.371094 L 10.328125 18.394531 C 10.203125 18.023438 9.859375 17.777344 9.46875 17.777344 C 9.082031 17.777344 8.734375 18.027344 8.609375 18.394531 L 6.679688 24.347656 C 6.578125 24.644531 6.734375 24.988281 7.039062 25.066406 C 7.328125 25.140625 7.605469 24.980469 7.695312 24.714844 L 8.292969 22.902344 L 10.605469 22.902344 L 11.222656 24.71875 C 11.296875 24.9375 11.503906 25.085938 11.734375 25.085938 L 11.765625 25.085938 C 12.136719 25.085938 12.398438 24.71875 12.277344 24.371094 M 8.546875 21.996094 L 9.179688 19.851562 C 9.269531 19.574219 9.355469 19.277344 9.441406 18.9375 C 9.519531 19.230469 9.605469 19.535156 9.71875 19.863281 L 10.351562 21.996094 Z M 8.546875 21.996094 "/>
<path fill-rule="nonzero" fill="rgb(0%, 62.745667%, 57.255554%)" fill-opacity="1" d="M 4.304688 20.761719 L 1.152344 20.761719 L 1.152344 18.410156 C 1.152344 18.105469 0.902344 17.859375 0.601562 17.859375 C 0.296875 17.859375 0.0507812 18.105469 0.0507812 18.410156 L 0.0507812 24.453125 C 0.0507812 24.757812 0.296875 25.003906 0.601562 25.003906 C 0.902344 25.003906 1.152344 24.757812 1.152344 24.453125 L 1.152344 21.75 L 4.304688 21.75 L 4.304688 24.453125 C 4.304688 24.757812 4.550781 25.003906 4.851562 25.003906 L 4.863281 25.003906 C 5.167969 25.003906 5.414062 24.757812 5.414062 24.453125 L 5.414062 18.410156 C 5.414062 18.105469 5.167969 17.859375 4.863281 17.859375 L 4.851562 17.859375 C 4.550781 17.859375 4.304688 18.105469 4.304688 18.410156 Z M 4.304688 20.761719 "/>
<path fill-rule="nonzero" fill="rgb(0%, 62.745667%, 57.255554%)" fill-opacity="1" d="M 18.605469 18.695312 C 17.960938 18.09375 17.015625 17.800781 15.722656 17.800781 C 15.316406 17.800781 14.902344 17.824219 14.488281 17.863281 C 14.113281 17.898438 13.828125 18.214844 13.828125 18.585938 L 13.828125 24.308594 C 13.828125 24.699219 14.132812 25.015625 14.519531 25.035156 C 14.8125 25.050781 15.121094 25.058594 15.445312 25.058594 C 16.828125 25.058594 17.914062 24.703125 18.585938 24.03125 C 19.257812 23.371094 19.613281 22.410156 19.613281 21.261719 C 19.613281 20.171875 19.273438 19.308594 18.605469 18.695312 M 15.621094 24.136719 C 15.386719 24.136719 15.058594 24.132812 14.816406 24.097656 L 14.816406 18.792969 C 15.015625 18.753906 15.324219 18.71875 15.765625 18.71875 C 16.664062 18.71875 17.355469 18.953125 17.820312 19.421875 C 18.257812 19.859375 18.476562 20.492188 18.472656 21.292969 C 18.472656 23.125 17.460938 24.136719 15.621094 24.136719 "/>
<path fill-rule="nonzero" fill="rgb(0%, 62.745667%, 57.255554%)" fill-opacity="1" d="M 9.789062 14.625 C 9.339844 14.625 8.972656 14.992188 8.972656 15.441406 L 8.972656 15.460938 C 8.972656 15.910156 9.339844 16.277344 9.789062 16.277344 C 10.238281 16.277344 10.605469 15.910156 10.605469 15.460938 L 10.605469 15.441406 C 10.605469 14.992188 10.238281 14.625 9.789062 14.625 "/>
<path fill-rule="nonzero" fill="rgb(0%, 62.745667%, 57.255554%)" fill-opacity="1" d="M 11.640625 14.625 C 11.191406 14.625 10.828125 14.992188 10.828125 15.441406 L 10.828125 15.460938 C 10.828125 15.910156 11.191406 16.277344 11.640625 16.277344 C 12.09375 16.277344 12.457031 15.910156 12.457031 15.460938 L 12.457031 15.441406 C 12.457031 14.992188 12.09375 14.625 11.640625 14.625 "/>
<path fill-rule="nonzero" fill="rgb(0%, 62.745667%, 57.255554%)" fill-opacity="1" d="M 2.824219 6.09375 C 3.277344 6.09375 3.640625 5.726562 3.640625 5.277344 L 3.640625 5.257812 C 3.640625 4.808594 3.277344 4.441406 2.824219 4.441406 C 2.375 4.441406 2.011719 4.808594 2.011719 5.257812 L 2.011719 5.277344 C 2.011719 5.726562 2.375 6.09375 2.824219 6.09375 "/>
<path fill-rule="nonzero" fill="rgb(0%, 62.745667%, 57.255554%)" fill-opacity="1" d="M 4.675781 6.09375 C 5.128906 6.09375 5.492188 5.726562 5.492188 5.277344 L 5.492188 5.257812 C 5.492188 4.808594 5.128906 4.441406 4.675781 4.441406 C 4.226562 4.441406 3.863281 4.808594 3.863281 5.257812 L 3.863281 5.277344 C 3.863281 5.726562 4.226562 6.09375 4.675781 6.09375 "/>
<path fill-rule="nonzero" fill="rgb(0%, 62.745667%, 57.255554%)" fill-opacity="1" d="M 4.972656 12.355469 L 1.414062 12.355469 L 1.414062 11.742188 C 1.414062 10.824219 1.667969 10.019531 2.179688 9.324219 C 2.691406 8.628906 3.523438 8.285156 4.675781 8.285156 L 4.972656 8.285156 Z M 17.5 11.726562 L 17.5 7.746094 C 17.5 7.355469 17.179688 7.039062 16.789062 7.039062 C 16.398438 7.039062 16.082031 7.355469 16.082031 7.746094 L 16.082031 11.214844 C 16.082031 11.609375 16.03125 11.898438 15.925781 12.082031 C 15.820312 12.265625 15.59375 12.355469 15.238281 12.355469 L 6.386719 12.355469 L 6.386719 7.46875 C 6.386719 7.148438 6.128906 6.886719 5.808594 6.886719 L 5.382812 6.886719 C 3.695312 6.886719 2.375 7.289062 1.425781 8.097656 C 0.476562 8.902344 0 10.144531 0 11.820312 L 0 13.261719 C 0 13.445312 0.148438 13.59375 0.328125 13.59375 L 15.375 13.59375 C 16.789062 13.59375 17.5 12.972656 17.5 11.726562 "/>
<path fill-rule="nonzero" fill="rgb(0%, 62.745667%, 57.255554%)" fill-opacity="1" d="M 39.6875 12.355469 L 36.132812 12.355469 L 36.132812 7.851562 L 36.425781 7.851562 C 37.578125 7.851562 38.410156 8.199219 38.921875 8.894531 C 39.433594 9.589844 39.6875 10.394531 39.6875 11.3125 Z M 34.71875 12.355469 L 31.160156 12.355469 L 31.160156 11.3125 C 31.160156 10.890625 31.214844 10.496094 31.316406 10.121094 C 31.421875 9.75 31.585938 9.382812 31.808594 9.023438 C 32.03125 8.660156 32.367188 8.375 32.8125 8.167969 C 33.257812 7.957031 33.785156 7.851562 34.402344 7.851562 L 34.71875 7.851562 Z M 39.679688 7.664062 C 38.730469 6.859375 37.410156 6.457031 35.71875 6.457031 L 32.019531 6.457031 C 31.5625 6.457031 31.191406 6.828125 31.191406 7.289062 L 31.191406 7.851562 L 31.160156 7.851562 C 30.6875 8.0625 30.339844 8.519531 30.109375 9.21875 C 29.878906 9.917969 29.765625 10.644531 29.765625 11.390625 L 29.765625 12.355469 L 26.800781 12.355469 L 26.800781 11.90625 C 26.800781 10.230469 26.328125 8.988281 25.378906 8.183594 C 24.429688 7.375 23.109375 6.972656 21.417969 6.972656 L 20.417969 6.972656 L 20.417969 8.59375 C 20.417969 8.8125 20.59375 8.988281 20.8125 8.988281 L 21.433594 8.988281 C 21.652344 8.988281 21.832031 8.8125 21.832031 8.59375 L 21.832031 8.367188 L 22.125 8.367188 C 23.277344 8.367188 24.109375 8.714844 24.621094 9.410156 C 25.132812 10.105469 25.386719 10.910156 25.386719 11.828125 L 25.382812 12.367188 L 20.070312 12.355469 C 19.726562 12.355469 19.449219 12.632812 19.449219 12.976562 C 19.449219 13.316406 19.726562 13.59375 20.070312 13.59375 L 40.429688 13.59375 C 40.804688 13.59375 41.101562 13.292969 41.101562 12.921875 L 41.101562 11.390625 C 41.101562 9.714844 40.628906 8.472656 39.679688 7.664062 "/>
<g clip-path="url(#clip-0)">
<path fill-rule="nonzero" fill="rgb(0%, 62.745667%, 57.255554%)" fill-opacity="1" d="M 62.335938 12.585938 C 62.347656 12.671875 62.351562 12.769531 62.351562 12.878906 C 62.355469 13.242188 62.355469 13.609375 62.355469 13.964844 C 62.355469 14.144531 62.351562 14.332031 62.351562 14.511719 L 62.351562 14.746094 L 62.488281 14.660156 C 62.53125 14.636719 62.558594 14.617188 62.582031 14.597656 C 63.414062 14 64.210938 13.503906 65.015625 13.082031 C 65.238281 12.96875 65.449219 12.925781 65.65625 12.945312 C 65.949219 12.972656 66.191406 13.105469 66.371094 13.332031 C 66.5 13.5 66.566406 13.667969 66.582031 13.851562 C 66.609375 14.308594 66.425781 14.640625 66.019531 14.863281 C 65.597656 15.09375 65.152344 15.34375 64.722656 15.621094 C 64.542969 15.738281 64.367188 15.851562 64.1875 15.972656 L 64.054688 16.054688 L 64.195312 16.125 C 64.199219 16.125 64.203125 16.128906 64.207031 16.128906 C 64.222656 16.136719 64.238281 16.148438 64.265625 16.152344 C 64.378906 16.171875 64.492188 16.1875 64.605469 16.203125 C 64.773438 16.226562 64.949219 16.253906 65.121094 16.285156 C 65.507812 16.347656 65.847656 16.414062 66.167969 16.480469 C 66.796875 16.609375 67.433594 16.761719 68.058594 16.9375 C 68.105469 16.949219 68.15625 16.960938 68.203125 16.976562 C 68.445312 17.042969 68.691406 17.113281 68.929688 17.199219 C 69.296875 17.335938 69.519531 17.601562 69.59375 18 C 69.664062 18.402344 69.445312 18.84375 69.074219 19.039062 C 68.8125 19.179688 68.527344 19.203125 68.230469 19.109375 C 67.480469 18.878906 66.707031 18.675781 65.941406 18.515625 C 65.648438 18.457031 65.347656 18.402344 65.058594 18.347656 C 64.914062 18.320312 64.761719 18.296875 64.617188 18.269531 L 64.613281 18.269531 C 64.511719 18.25 64.410156 18.234375 64.304688 18.21875 C 64.238281 18.210938 64.171875 18.199219 64.105469 18.1875 L 63.90625 18.15625 L 64.019531 18.324219 C 64.019531 18.328125 64.023438 18.332031 64.027344 18.335938 C 64.03125 18.34375 64.035156 18.355469 64.046875 18.367188 C 65.015625 19.527344 65.960938 20.792969 66.851562 22.121094 C 66.867188 22.148438 66.886719 22.175781 66.90625 22.203125 C 66.988281 22.328125 67.074219 22.457031 67.125 22.59375 C 67.222656 22.878906 67.199219 23.191406 67.050781 23.449219 C 66.910156 23.703125 66.667969 23.875 66.378906 23.933594 C 65.941406 24.027344 65.578125 23.882812 65.300781 23.5 C 65.191406 23.34375 65.082031 23.179688 64.976562 23.019531 C 64.882812 22.882812 64.789062 22.738281 64.691406 22.601562 C 64.175781 21.867188 63.6875 21.203125 63.195312 20.578125 C 63.0625 20.40625 62.925781 20.238281 62.792969 20.078125 C 62.710938 19.976562 62.625 19.875 62.542969 19.769531 L 62.359375 19.585938 L 62.359375 19.800781 C 62.359375 19.8125 62.355469 19.824219 62.355469 19.835938 C 62.355469 19.847656 62.351562 19.859375 62.351562 19.871094 L 62.351562 22.429688 C 62.351562 23.042969 62.351562 26.878906 62.351562 29.476562 L 74.160156 22.667969 C 74.386719 22.535156 74.527344 22.292969 74.527344 22.027344 L 74.511719 15.410156 C 74.511719 15.140625 74.363281 14.894531 74.125 14.765625 L 61.675781 7.960938 C 61.585938 7.910156 61.488281 7.886719 61.386719 7.878906 L 61.386719 11.742188 C 61.855469 11.765625 62.25 12.101562 62.335938 12.585938 "/>
</g>
<g clip-path="url(#clip-1)">
<path fill-rule="nonzero" fill="rgb(0%, 62.745667%, 57.255554%)" fill-opacity="1" d="M 61.675781 4.035156 L 73.417969 10.453125 C 73.910156 10.722656 74.511719 10.363281 74.511719 9.804688 L 74.511719 7.554688 C 74.511719 7.285156 74.363281 7.035156 74.125 6.90625 L 61.675781 0.101562 C 61.585938 0.0546875 61.488281 0.03125 61.386719 0.0195312 L 61.386719 3.953125 C 61.488281 3.960938 61.585938 3.984375 61.675781 4.035156 "/>
</g>
<g clip-path="url(#clip-2)">
<path fill-rule="nonzero" fill="rgb(0%, 62.745667%, 57.255554%)" fill-opacity="1" d="M 60.445312 12.582031 C 60.433594 12.667969 60.425781 12.765625 60.425781 12.878906 C 60.421875 13.238281 60.425781 13.605469 60.425781 13.964844 C 60.425781 14.144531 60.425781 14.328125 60.425781 14.511719 L 60.425781 14.742188 L 60.292969 14.660156 C 60.246094 14.632812 60.21875 14.613281 60.195312 14.59375 C 59.367188 13.996094 58.570312 13.503906 57.765625 13.082031 C 57.542969 12.96875 57.332031 12.921875 57.121094 12.941406 C 56.832031 12.972656 56.589844 13.101562 56.40625 13.328125 C 56.28125 13.496094 56.210938 13.667969 56.199219 13.851562 C 56.171875 14.308594 56.351562 14.640625 56.761719 14.859375 C 57.183594 15.09375 57.628906 15.339844 58.058594 15.621094 C 58.234375 15.738281 58.410156 15.851562 58.59375 15.96875 L 58.726562 16.054688 L 58.585938 16.121094 C 58.582031 16.125 58.578125 16.125 58.574219 16.128906 C 58.558594 16.136719 58.539062 16.148438 58.515625 16.148438 C 58.402344 16.167969 58.285156 16.183594 58.175781 16.199219 C 58.007812 16.226562 57.828125 16.25 57.65625 16.28125 C 57.273438 16.347656 56.929688 16.410156 56.613281 16.480469 L 56.609375 16.480469 C 55.980469 16.605469 55.347656 16.757812 54.71875 16.933594 C 54.671875 16.945312 54.625 16.960938 54.578125 16.972656 C 54.335938 17.039062 54.085938 17.109375 53.851562 17.199219 C 53.484375 17.332031 53.261719 17.601562 53.1875 17.996094 C 53.117188 18.402344 53.332031 18.839844 53.707031 19.039062 C 53.96875 19.175781 54.25 19.203125 54.550781 19.109375 C 55.300781 18.875 56.070312 18.675781 56.839844 18.515625 C 57.128906 18.453125 57.429688 18.398438 57.71875 18.347656 C 57.867188 18.320312 58.015625 18.292969 58.164062 18.265625 C 58.265625 18.246094 58.367188 18.234375 58.476562 18.21875 C 58.539062 18.207031 58.605469 18.195312 58.671875 18.1875 L 58.875 18.15625 L 58.757812 18.324219 C 58.757812 18.324219 58.757812 18.328125 58.753906 18.332031 C 58.75 18.34375 58.742188 18.355469 58.734375 18.363281 C 57.761719 19.527344 56.820312 20.789062 55.929688 22.117188 C 55.910156 22.144531 55.894531 22.171875 55.875 22.199219 C 55.792969 22.324219 55.707031 22.453125 55.65625 22.589844 C 55.554688 22.878906 55.582031 23.191406 55.726562 23.449219 C 55.871094 23.699219 56.109375 23.875 56.402344 23.933594 C 56.839844 24.023438 57.199219 23.878906 57.476562 23.5 C 57.589844 23.34375 57.699219 23.175781 57.804688 23.019531 C 57.898438 22.878906 57.992188 22.738281 58.089844 22.597656 C 58.601562 21.863281 59.09375 21.199219 59.585938 20.574219 C 59.71875 20.40625 59.855469 20.238281 59.988281 20.074219 C 60.070312 19.976562 60.152344 19.871094 60.238281 19.769531 L 60.238281 19.765625 L 60.421875 19.585938 L 60.421875 19.796875 C 60.421875 19.8125 60.421875 19.824219 60.425781 19.835938 C 60.425781 19.847656 60.425781 19.859375 60.425781 19.871094 L 60.425781 22.429688 C 60.425781 23.039062 60.425781 26.875 60.429688 29.472656 L 48.621094 22.667969 C 48.390625 22.535156 48.25 22.289062 48.25 22.027344 L 48.269531 15.410156 C 48.269531 15.140625 48.417969 14.890625 48.652344 14.761719 L 61.101562 7.957031 C 61.195312 7.910156 61.292969 7.886719 61.394531 7.875 L 61.394531 11.738281 C 60.925781 11.761719 60.527344 12.101562 60.445312 12.582031 "/>
</g>
<g clip-path="url(#clip-3)">
<path fill-rule="nonzero" fill="rgb(0%, 62.745667%, 57.255554%)" fill-opacity="1" d="M 61.101562 4.035156 L 49.359375 10.449219 C 48.871094 10.71875 48.269531 10.363281 48.269531 9.804688 L 48.269531 7.550781 C 48.269531 7.28125 48.417969 7.035156 48.652344 6.902344 L 61.101562 0.101562 C 61.195312 0.0507812 61.292969 0.0273438 61.390625 0.0195312 L 61.390625 3.953125 C 61.292969 3.960938 61.195312 3.984375 61.101562 4.035156 "/>
</g>
</svg>
